<svg version="1.1" xmlns="http://www.w3.org/2000/svg" xmlns:xlink="http://www.w3.org/1999/xlink" width="512px" height="512px" viewBox="0,0,256,256"><g fill="#ffffff" fill-rule="nonzero" stroke="none" stroke-width="1" stroke-linecap="butt" stroke-linejoin="miter" stroke-miterlimit="10" stroke-dasharray="" stroke-dashoffset="0" font-family="none" font-weight="none" font-size="none" text-anchor="none" style="mix-blend-mode: normal"><g transform="translate(3.89001,-3.3989) scale(0.5,0.5)"><g id="French_fries"><path d="M288.8126,361.6717c-10.2782,-5.5042 -23.4442,-8.8085 -37.7993,-8.8085c-32.8812,0 -59.5445,17.3367 -59.5445,38.7337c0,17.2007 17.2348,31.7853 41.0864,36.8394c6.07014,1.27126 12.25629,1.90609 18.4581,1.8942c32.89,0 59.5529,-17.3367 59.5529,-38.7336c0,-12.0619 -8.4688,-22.824 -21.7536,-29.9252z"></path><path d="M450.93,88.61c-7.94987,-5.29 -15.89987,-10.58333 -23.85,-15.88c-1.49832,-0.99899 -3.29937,-1.44129 -5.09,-1.25h-0.06l-19.26,2.09c-2.58905,0.03308 -4.9889,1.36257 -6.39,3.54c-5.4978,8.53213 -10.7324,17.2047 -15.7038,26.0177c-8.38547,-4.3662 -16.77087,-8.73543 -25.1562,-13.1077c-1.59384,-0.836 -3.43019,-1.08721 -5.19,-0.71h-0.01c-0.01216,0.00696 -0.026,0.01042 -0.04,0.01l-4.77,1.04c3.54,-10.53 7.45333,-20.95 11.74,-31.26c1.63201,-3.89389 -0.16814,-8.37642 -4.04,-10.06c-8.76,-3.81 -17.51667,-7.62 -26.27,-11.43c-1.65359,-0.72245 -3.50884,-0.83929 -5.24,-0.33h-0.01c-0.01,0 -0.02,0.01 -0.04,0.01l-18.57,5.45c-2.554,0.4828 -4.69301,2.21958 -5.69,4.62c-6.18873,14.82667 -11.66763,29.87667 -16.4367,45.15c-1.8452,-15.67127 -4.02297,-31.30793 -6.5333,-46.91c-0.36849,-2.46648 -2.00483,-4.55842 -4.31,-5.51c-4.86,-3 -9.72667,-5.94667 -14.6,-8.84c-1.35528,-0.88444 -2.99615,-1.22047 -4.59,-0.94c-12.48,2.23 -24.96333,4.46 -37.45,6.69c-3.5943,0.66347 -5.98205,4.10004 -5.35,7.7c2.59567,15.08 4.85837,30.20253 6.7881,45.3676c-4.59027,-14.4204 -9.80963,-28.65627 -15.6581,-42.7076c-1.01234,-2.42704 -3.19051,-4.17183 -5.78,-4.63c0.04,0.01 0.09,0.01 0.13,0.02l-18.61,-5.46c-0.02,0 -0.03,-0.01 -0.04,-0.01h-0.01c-1.73116,-0.5093 -3.58641,-0.39246 -5.24,0.33c-8.75,3.81 -17.50667,7.62 -26.27,11.43c-3.87191,1.68354 -5.67206,6.16611 -4.04,10.06c4.081,9.79793 7.81727,19.7059 11.2088,29.7239c0,0 -1.39,-0.129 -2.6938,-0.2511c-1.62886,-0.15455 -3.27173,0.05357 -4.8106,0.6094c-0.67539,0.23671 -1.33488,0.51655 -1.9744,0.8378c-8.384,4.36533 -16.76813,8.73393 -25.1524,13.1058c-4.9694,-8.8086 -10.20527,-17.48053 -15.7076,-26.0158c-1.41495,-2.20154 -3.85297,-3.53171 -6.47,-3.53c0.02,0 0.05,-0.01 0.08,-0.01l-19.26,-2.09h-0.06c-1.79064,-0.19136 -3.59171,0.25094 -5.09,1.25c-7.95007,5.29 -15.90007,10.58333 -23.85,15.88c-3.50863,2.34097 -4.49217,7.06284 -2.21,10.61c16.84028,26.18208 31.08131,53.9474 42.52,82.9c-3.35118,4.85459 -5.1917,10.59188 -5.29,16.49c0.01886,2.19383 0.24993,4.38068 0.69,6.53c0.1655,0.6352 0.3568,1.37 0.5719,2.1673l44.6681,238.8709c4.1,27.4635 57.9711,49.2039 123.8451,49.2039c65.8836,0 119.7544,-21.74 123.8547,-49.2039l44.8218,-239.6921c0.12787,-0.35867 0.23733,-0.70403 0.3284,-1.0361c0.4699,-2.25029 0.71776,-4.54128 0.74,-6.84c0,-7.03 -2.79,-13.8 -7.97,-20.15c11.18826,-27.63478 24.9347,-54.16346 41.06,-79.24c2.28211,-3.54717 1.29858,-8.269 -2.21,-10.61zM283.11,113.34c5.78944,-21.32591 12.95786,-42.25329 21.46,-62.65c8.5898,3.73 17.1798,7.46667 25.77,11.21c-11.19342,26.95833 -19.93217,54.87144 -26.11,83.4c0.9919,-2.587 -10.8613,30.0739 -16.148,49.457c0.0244,-0.1014 0.0406,-0.2071 0.068,-0.307c-0.69687,-27.12153 -2.38327,-54.19657 -5.0592,-81.2251c0.0049,0.0402 0.0152,0.0738 0.0192,0.1151zM293.5021,205.5035c9.14995,-35.96286 22.15588,-70.83275 38.7917,-104.0035c4.13333,2.15207 8.26667,4.30573 12.4,6.461c4.1772,2.1774 8.3531,4.3533 12.5277,6.5277c-26.6179,53.05188 -43.25429,110.54584 -49.0794,169.6143c-7.705,6.1813 -17.7942,11.0506 -29.3632,14.0146v0c2.08436,-31.2545 7.01247,-62.25404 14.7232,-92.6141zM266.58,47.87c9.43773,59.01145 14.09287,118.68888 13.92,178.45c0.016,-0.0776 0.0411,-0.15 0.0588,-0.227c-5.04943,24.31564 -8.35974,48.96018 -9.9058,73.7464v0c-5.9651,1.00453 -12.00391,1.50726 -18.053,1.5029c-3.4438,0 -6.8263,-0.1676 -10.14,-0.474c5.9754,-82.53104 2.40511,-165.47598 -10.64,-247.1883c11.58,-1.94 23.16667,-3.87667 34.76,-5.81zM191.87,50.69c12.14319,29.15886 21.57307,59.37485 28.17,90.2646c3.231,41.24119 4.02811,82.63699 2.3872,123.972c-5.31978,-40.92678 -15.46709,-81.07966 -30.23,-119.62c-6.17165,-28.53083 -14.90616,-56.4463 -26.0972,-83.4066c8.58,-3.74 17.17,-7.47667 25.77,-11.21zM151.7147,107.9775c4.141,-2.1586 8.2848,-4.3178 12.4314,-6.4776c16.49891,32.90095 29.42805,67.47373 38.5664,103.1273c7.60908,29.73996 12.54832,60.09976 14.7589,90.718c-14.2972,-5.26 -30.7622,-22.4662 -30.3523,-21.8579c-6.71292,-55.35799 -22.91676,-109.14484 -47.9,-158.9987c4.1652,-2.1688 8.3304,-4.33917 12.4956,-6.5111zM70.19,97.26c7.8,-5.2 15.6,-10.39333 23.4,-15.58c6.38787,9.92667 12.43273,20.07357 18.1346,30.4407c0.13593,0.50375 0.32195,0.99262 0.5553,1.4593c21.98263,43.87066 37.0862,90.8617 44.7809,139.3247c-7.90403,-2.00444 -15.70148,-4.40785 -23.3624,-7.201c-6.78507,-28.11073 -16.07155,-55.55805 -27.7484,-82.0137c-10.18535,-23.0342 -22.14117,-45.24408 -35.76,-66.43zM361.3813,443.7886c-0.02913,0.1562 -0.0554,0.31287 -0.0788,0.47c-1.2225,8.1883 -12.994,17.6708 -30.7207,24.7468c-21.61,8.6262 -50.1192,13.3768 -80.2766,13.3768c-30.1532,0 -58.66,-4.7506 -80.268,-13.3767c-17.726,-7.0762 -29.4972,-16.5587 -30.72,-24.7469c-0.0234,-0.15713 -0.0497,-0.3138 -0.0789,-0.47l-37.1022,-198.4118c15.8451,9.2841 37.0568,17.0393 61.3754,22.4368c4.23851,1.00348 7.80915,3.84398 9.74,7.7483c6.0294,11.7182 16.9555,21.5969 31.5969,28.5678c14.0325,6.6811 30.5447,10.2126 47.7516,10.2126c17.4335,0 34.1247,-3.616 48.2692,-10.457c14.8019,-7.1589 25.7151,-17.2779 31.56,-29.263c1.87419,-3.97563 5.43354,-6.90038 9.6971,-7.9682c22.1885,-5.309 41.61,-12.6469 56.3576,-21.28zM362.3635,247.3226c-7.2048,2.4649 -14.9492,4.6952 -23.154,6.6617c7.64069,-48.84244 22.80411,-96.20587 44.9505,-140.4043c0.23153,-0.46235 0.41645,-0.9466 0.552,-1.4456c5.69727,-10.35787 11.7442,-20.50947 18.1408,-30.4548c7.7956,5.18733 15.5939,10.37963 23.3949,15.5769c-29.61666,46.05533 -51.21701,96.79526 -63.8842,150.0661z"></path></g></g></g></svg>