<?xml version="1.0" encoding="UTF-8"?>
<svg xmlns="http://www.w3.org/2000/svg" xmlns:xlink="http://www.w3.org/1999/xlink" width="50px" height="50px" viewBox="0 0 50 50" version="1.1">
<g id="surface1">
<path style=" stroke:none;fill-rule:nonzero;fill:rgb(23.529412%,35.294118%,60.392157%);fill-opacity:1;" d="M 50 25 C 50 38.808594 38.808594 50 25 50 C 11.191406 50 0 38.808594 0 25 C 0 11.191406 11.191406 0 25 0 C 38.808594 0 50 11.191406 50 25 Z M 50 25 "/>
<path style=" stroke:none;fill-rule:nonzero;fill:rgb(100%,100%,100%);fill-opacity:1;" d="M 33.128906 7.671875 L 27.589844 7.671875 C 24.304688 7.671875 20.648438 9.054688 20.648438 13.820312 C 20.664062 15.480469 20.648438 17.070312 20.648438 18.859375 L 16.847656 18.859375 L 16.847656 24.910156 L 20.765625 24.910156 L 20.765625 42.328125 L 27.96875 42.328125 L 27.96875 24.792969 L 32.722656 24.792969 L 33.152344 18.839844 L 27.84375 18.839844 C 27.84375 18.839844 27.855469 16.195312 27.84375 15.425781 C 27.84375 13.542969 29.804688 13.648438 29.921875 13.648438 C 30.855469 13.648438 32.667969 13.652344 33.132812 13.648438 L 33.132812 7.671875 Z M 33.128906 7.671875 "/>
</g>
</svg>
